<svg xmlns="http://www.w3.org/2000/svg" width="1500" height="720" preserveAspectRatio="none" xmlns:v="https://vecta.io/nano"><g mask="url(#A)" fill="none"><path fill="rgba(255, 255, 255, 1)" d="M0 0h1500v720H0z"/><g stroke="rgba(83, 86, 255, 0.57)" stroke-width="2"><path d="M843.33 0c16.63 54.88-84.65 105.91-68.78 180 12.46 58.15 72.28 84.49 125.45 84.49 34.49 0 20.12-45.72 49.88-84.49 60.24-78.47 64.83-150 130.12-150 65.63 0 78.27 67.54 131.71 150 36.56 56.41 1.57 118.01 48.29 127.74 67.42 14.04 91.6-36.97 180-80.19 42.25-20.65 81.29-24.26 81.29-47.55 0-22.98-44.36-17.16-81.29-45-82.46-62.16-157.5-96.63-157.5-135 0-29.13 78.75 0 157.5 0 72.69 0 86.04-21.98 145.38 0 30.66 11.36 27.72 30.79 34.62 66.67 10.41 54.12 0 56.67 0 113.33v180 180c0 90 45 135 0 180s-90 0-180 0h-180c-84.7 0-86.54 4.6-169.41 0-7.13-.4-5.18-10-10.59-10-5.69 0-4.1 9.58-11.61 10-82.49 4.58-84.19 0-168.39 0-69.6 0-79.27 18.87-139.2 0-30.07-9.47-15.81-56.67-40.8-56.67-34.64 0-34.54 42.84-78.46 56.67-46.08 14.51-50.77 0-101.54 0H360 180c-90 0-131.28 41.28-180 0-41.28-34.99-37.41-145.06 0-152.54C52.59 556.94 111.06 691.97 180 684c49.86-5.76 57.6-75.13 57.6-144 0-45.49-15.94-80.34-57.6-84.71-77.14-8.09-130.48 86-180 59.79-40.48-21.43 0-77.54 0-155.08V180C0 90-45 45 0 0s90 0 180 0h180 180 180c61.66 0 112.69-35.12 123.33 0"/><path d="M540 318.29c-24.73 0-42.75 17.25-42.75 41.71 0 39.15 14.44 85.5 42.75 85.5 35.81 0 85.5-49.9 85.5-85.5 0-28.01-46.11-41.71-85.5-41.71M0 65C12.63 26.12 20.83 13.6 58.5 0c52.33-18.9 60.75 0 121.5 0 73.63 0 76.29-8.69 147.27 0 19.02 2.33 14.18 22.04 32.73 22.04 51.82 0 53.56-15.37 108-22.04 35.56-4.35 36 0 72 0h180c20 0 40-12.36 40 0 0 27.64-19.83 40.08-40 80-25.3 50.08-12.95 61.29-50.94 100-52.01 53-69.05 36.04-129.06 83.41-54.02 42.63-94.02 39.2-99 96.59-7.02 80.91 77.23 90.83 75 180-2.27 90.83-26.75 113.94-84 180-20.75 23.94-36 0-72 0-8.57 0-14.5 7.61-17.14 0-28.56-82.39-6.97-97.03-45.26-180-43.14-93.5-40.88-148.67-117.6-172.94-72.08-22.8-117.37 81.25-180 78.79-27.37-1.07 0-42.93 0-85.85V180c0-57.5-16.62-63.88 0-115m1004.1 115c32.52-47.66 37.82-87.5 75.9-87.5 38.28 0 52.51 36.14 76.83 87.5 39.01 82.39 40 88.42 49.84 180 9.5 88.42-28.67 98.34-11.15 180 9.14 42.62 30.08 68.57 64.48 68.57 39.38 0 65.14-22.11 83.08-68.57 30.06-77.83-18.65-105.87 12.92-180 16.89-39.65 41.22-25.24 84-47.55 89.22-46.52 126.55-104.22 180-90.1 36.55 9.66 0 68.82 0 137.65v180c0 71.47 39.8 109.17 0 142.94-50.2 42.59-95.71-5.79-180 9.79-15.94 2.95-4.61 24.87-20.45 27.27-74.16 11.23-79.77 0-159.55 0-51.62 0-58.75 17.92-103.24 0-45.51-18.33-37.55-72.5-76.76-72.5-41.26 0-35.86 53.04-84.19 72.5-41.67 16.79-47.91 0-95.81 0-39.6 0-50.88 22.03-79.2 0-61.68-47.97-35.88-90.45-100.8-140-52.98-40.45-135-2.86-135-40 0-50.36 57.08-84.73 135-135 61.58-39.73 71.41-25.37 144-45 17.41-4.71 25.48 9.85 36-3.67 59.53-76.48 46.62-92.08 104.1-176.33M1440 54.64c-31.33 0-63.75-39.11-63.75-54.64 0-11.79 31.88 0 63.75 0 29.43 0 58.85-11.55 58.85 0 0 15.77-28.88 54.64-58.85 54.64M0 643.73c32 0 102.27 55.1 102.27 76.27 0 16.97-72.98 21.84-102.27 0-21.84-16.29-19.13-76.27 0-76.27"/><path d="M15.65 180C86.88 86.28 91.82 86.72 171 0c3-3.28 4.5 0 9 0 5.45 0 6.34-2.89 10.91 0 85.43 54.05 76.4 84.36 169.09 113.88 81.85 26.07 102.93-25.43 180-2.7 35 10.33 44.15 39.19 44.15 68.82 0 19.05-24.7 10.98-44.15 28.54-80.25 72.44-107.82 61.11-155.25 151.46-39.57 75.38-7 90.97-18.75 180-.62 4.72-3.69 7.5-6 7.5-1.89 0-1.23-3.74-2.4-7.5-27.95-89.99-6.95-104.56-55.84-180-39.91-61.6-59.11-94.09-121.76-94.09-69.61 0-70.09 49.4-142.76 94.09C19.91 370.66 13.23 376.62 0 376.62c-5.39 0 0-8.31 0-16.62 0-67.5-5.78-68.48 0-135 2.04-23.48 1.38-26.22 15.65-45m1042.66 0c4.8-15.57 10.81-25 21.69-25 10.94 0 18.59 9.1 21.95 25 18.31 86.6 14.76 89.7 21.38 180 6.58 89.7 20.88 97.69 5.03 180-5.81 30.19-19.59 45-48.36 45-57.72 0-111.64 1.19-124.62-45-18.64-66.31 35.27-88.69 61.38-180 25.36-88.69 14.73-93.07 41.55-180M1605 360c6.14-5 9.37-5.29 15-5.29 1.87 0 0 2.65 0 5.29v180c0 5.3 5 10.14 0 10.59-85 7.73-94.06 10.55-180 5.77-9.25-.51-10.38-7.39-10.38-16.36 0-18.49-3.23-24.6 10.38-38.57 74.08-76.03 81.14-73.07 165-141.43M880.8 720c0-37.23 8.65-90 19.2-90 10.66 0 23.23 54 23.23 90 0 9-11.61 0-23.23 0-9.6 0-19.2 7.77-19.2 0m342.14 0c0-11.91 16.38-40 37.06-40 26.49 0 57.27 29.01 57.27 40 0 9.01-28.63 0-57.27 0-18.53 0-37.06 8.09-37.06 0"/></g></g><defs><mask id="A"><path fill="#fff" d="M0 0h1500v720H0z"/></mask></defs></svg>