<svg xmlns="http://www.w3.org/2000/svg" version="1.1" xmlns:xlink="http://www.w3.org/1999/xlink" xmlns:svgjs="http://svgjs.dev/svgjs" width="1440" height="560" preserveAspectRatio="none" viewBox="0 0 1440 560"><g mask="url(&quot;#SvgjsMask2333&quot;)" fill="none"><rect width="1440" height="560" x="0" y="0" fill="rgba(250, 250, 250, 1)"></rect><path d="M-87.38 407L-87.38 407" stroke="rgba(55, 140, 231, 1)" stroke-width="1.5"></path><path d="M-87.38 407L-64.99 525.87" stroke="rgba(55, 140, 231, 1)" stroke-width="1.5"></path><path d="M-87.38 407L73.79 398.13" stroke="rgba(55, 140, 231, 1)" stroke-width="1.5"></path><path d="M-87.38 407L50.99 529.49" stroke="rgba(55, 140, 231, 1)" stroke-width="1.5"></path><path d="M-87.38 407L199.24 406.48" stroke="rgba(55, 140, 231, 1)" stroke-width="1.5"></path><path d="M-64.99 525.87L-64.99 525.87" stroke="rgba(55, 140, 231, 1)" stroke-width="1.5"></path><path d="M-64.99 525.87L50.99 529.49" stroke="rgba(55, 140, 231, 1)" stroke-width="1.5"></path><path d="M-64.99 525.87L-50.65 705.56" stroke="rgba(55, 140, 231, 1)" stroke-width="1.5"></path><path d="M-50.65 705.56L-50.65 705.56" stroke="rgba(55, 140, 231, 1)" stroke-width="1.5"></path><path d="M-50.65 705.56L53.94 668.85" stroke="rgba(55, 140, 231, 1)" stroke-width="1.5"></path><path d="M-50.65 705.56L50.99 529.49" stroke="rgba(55, 140, 231, 1)" stroke-width="1.5"></path><path d="M73.79 398.13L73.79 398.13" stroke="rgba(55, 140, 231, 1)" stroke-width="1.5"></path><path d="M73.79 398.13L199.24 406.48" stroke="rgba(55, 140, 231, 1)" stroke-width="1.5"></path><path d="M73.79 398.13L50.99 529.49" stroke="rgba(55, 140, 231, 1)" stroke-width="1.5"></path><path d="M73.79 398.13L188.44 529.09" stroke="rgba(55, 140, 231, 1)" stroke-width="1.5"></path><path d="M73.79 398.13L-64.99 525.87" stroke="rgba(55, 140, 231, 1)" stroke-width="1.5"></path><path d="M50.99 529.49L50.99 529.49" stroke="rgba(55, 140, 231, 1)" stroke-width="1.5"></path><path d="M50.99 529.49L188.44 529.09" stroke="rgba(55, 140, 231, 1)" stroke-width="1.5"></path><path d="M53.94 668.85L53.94 668.85" stroke="rgba(55, 140, 231, 1)" stroke-width="1.5"></path><path d="M53.94 668.85L50.99 529.49" stroke="rgba(55, 140, 231, 1)" stroke-width="1.5"></path><path d="M53.94 668.85L211.96 700.25" stroke="rgba(55, 140, 231, 1)" stroke-width="1.5"></path><path d="M53.94 668.85L-64.99 525.87" stroke="rgba(55, 140, 231, 1)" stroke-width="1.5"></path><path d="M199.24 406.48L199.24 406.48" stroke="rgba(55, 140, 231, 1)" stroke-width="1.5"></path><path d="M199.24 406.48L188.44 529.09" stroke="rgba(55, 140, 231, 1)" stroke-width="1.5"></path><path d="M199.24 406.48L50.99 529.49" stroke="rgba(55, 140, 231, 1)" stroke-width="1.5"></path><path d="M199.24 406.48L404.5 544.7" stroke="rgba(55, 140, 231, 1)" stroke-width="1.5"></path><path d="M188.44 529.09L188.44 529.09" stroke="rgba(55, 140, 231, 1)" stroke-width="1.5"></path><path d="M188.44 529.09L211.96 700.25" stroke="rgba(55, 140, 231, 1)" stroke-width="1.5"></path><path d="M211.96 700.25L211.96 700.25" stroke="rgba(55, 140, 231, 1)" stroke-width="1.5"></path><path d="M211.96 700.25L390.85 646.56" stroke="rgba(55, 140, 231, 1)" stroke-width="1.5"></path><path d="M211.96 700.25L50.99 529.49" stroke="rgba(55, 140, 231, 1)" stroke-width="1.5"></path><path d="M211.96 700.25L404.5 544.7" stroke="rgba(55, 140, 231, 1)" stroke-width="1.5"></path><path d="M211.96 700.25L-50.65 705.56" stroke="rgba(55, 140, 231, 1)" stroke-width="1.5"></path><path d="M404.5 544.7L404.5 544.7" stroke="rgba(55, 140, 231, 1)" stroke-width="1.5"></path><path d="M404.5 544.7L390.85 646.56" stroke="rgba(55, 140, 231, 1)" stroke-width="1.5"></path><path d="M404.5 544.7L519.9 555.76" stroke="rgba(55, 140, 231, 1)" stroke-width="1.5"></path><path d="M404.5 544.7L506.27 409.88" stroke="rgba(55, 140, 231, 1)" stroke-width="1.5"></path><path d="M404.5 544.7L558.88 669.32" stroke="rgba(55, 140, 231, 1)" stroke-width="1.5"></path><path d="M390.85 646.56L390.85 646.56" stroke="rgba(55, 140, 231, 1)" stroke-width="1.5"></path><path d="M390.85 646.56L519.9 555.76" stroke="rgba(55, 140, 231, 1)" stroke-width="1.5"></path><path d="M390.85 646.56L558.88 669.32" stroke="rgba(55, 140, 231, 1)" stroke-width="1.5"></path><path d="M506.27 409.88L506.27 409.88" stroke="rgba(55, 140, 231, 1)" stroke-width="1.5"></path><path d="M506.27 409.88L637.64 402.52" stroke="rgba(55, 140, 231, 1)" stroke-width="1.5"></path><path d="M506.27 409.88L519.9 555.76" stroke="rgba(55, 140, 231, 1)" stroke-width="1.5"></path><path d="M519.9 555.76L519.9 555.76" stroke="rgba(55, 140, 231, 1)" stroke-width="1.5"></path><path d="M519.9 555.76L558.88 669.32" stroke="rgba(55, 140, 231, 1)" stroke-width="1.5"></path><path d="M558.88 669.32L558.88 669.32" stroke="rgba(55, 140, 231, 1)" stroke-width="1.5"></path><path d="M558.88 669.32L676.79 708.82" stroke="rgba(55, 140, 231, 1)" stroke-width="1.5"></path><path d="M712.14 215.07L712.14 215.07" stroke="rgba(55, 140, 231, 1)" stroke-width="1.5"></path><path d="M712.14 215.07L845.91 259.41" stroke="rgba(55, 140, 231, 1)" stroke-width="1.5"></path><path d="M712.14 215.07L790.49 343.28" stroke="rgba(55, 140, 231, 1)" stroke-width="1.5"></path><path d="M712.14 215.07L637.64 402.52" stroke="rgba(55, 140, 231, 1)" stroke-width="1.5"></path><path d="M712.14 215.07L960.45 226.88" stroke="rgba(55, 140, 231, 1)" stroke-width="1.5"></path><path d="M712.14 215.07L506.27 409.88" stroke="rgba(55, 140, 231, 1)" stroke-width="1.5"></path><path d="M637.64 402.52L637.64 402.52" stroke="rgba(55, 140, 231, 1)" stroke-width="1.5"></path><path d="M637.64 402.52L790.49 343.28" stroke="rgba(55, 140, 231, 1)" stroke-width="1.5"></path><path d="M696.32 556.41L696.32 556.41" stroke="rgba(55, 140, 231, 1)" stroke-width="1.5"></path><path d="M696.32 556.41L795.74 549.29" stroke="rgba(55, 140, 231, 1)" stroke-width="1.5"></path><path d="M696.32 556.41L676.79 708.82" stroke="rgba(55, 140, 231, 1)" stroke-width="1.5"></path><path d="M696.32 556.41L637.64 402.52" stroke="rgba(55, 140, 231, 1)" stroke-width="1.5"></path><path d="M676.79 708.82L676.79 708.82" stroke="rgba(55, 140, 231, 1)" stroke-width="1.5"></path><path d="M676.79 708.82L825.23 683.82" stroke="rgba(55, 140, 231, 1)" stroke-width="1.5"></path><path d="M676.79 708.82L795.74 549.29" stroke="rgba(55, 140, 231, 1)" stroke-width="1.5"></path><path d="M845.91 259.41L845.91 259.41" stroke="rgba(55, 140, 231, 1)" stroke-width="1.5"></path><path d="M845.91 259.41L790.49 343.28" stroke="rgba(55, 140, 231, 1)" stroke-width="1.5"></path><path d="M845.91 259.41L960.45 226.88" stroke="rgba(55, 140, 231, 1)" stroke-width="1.5"></path><path d="M845.91 259.41L960.31 383.93" stroke="rgba(55, 140, 231, 1)" stroke-width="1.5"></path><path d="M845.91 259.41L637.64 402.52" stroke="rgba(55, 140, 231, 1)" stroke-width="1.5"></path><path d="M845.91 259.41L994.04 41.64" stroke="rgba(55, 140, 231, 1)" stroke-width="1.5"></path><path d="M790.49 343.28L790.49 343.28" stroke="rgba(55, 140, 231, 1)" stroke-width="1.5"></path><path d="M790.49 343.28L960.31 383.93" stroke="rgba(55, 140, 231, 1)" stroke-width="1.5"></path><path d="M790.49 343.28L960.45 226.88" stroke="rgba(55, 140, 231, 1)" stroke-width="1.5"></path><path d="M795.74 549.29L795.74 549.29" stroke="rgba(55, 140, 231, 1)" stroke-width="1.5"></path><path d="M795.74 549.29L825.23 683.82" stroke="rgba(55, 140, 231, 1)" stroke-width="1.5"></path><path d="M795.74 549.29L960.42 521.99" stroke="rgba(55, 140, 231, 1)" stroke-width="1.5"></path><path d="M795.74 549.29L790.49 343.28" stroke="rgba(55, 140, 231, 1)" stroke-width="1.5"></path><path d="M825.23 683.82L825.23 683.82" stroke="rgba(55, 140, 231, 1)" stroke-width="1.5"></path><path d="M825.23 683.82L696.32 556.41" stroke="rgba(55, 140, 231, 1)" stroke-width="1.5"></path><path d="M825.23 683.82L1011.8 709.19" stroke="rgba(55, 140, 231, 1)" stroke-width="1.5"></path><path d="M937.82 -99.78L937.82 -99.78" stroke="rgba(55, 140, 231, 1)" stroke-width="1.5"></path><path d="M937.82 -99.78L994.04 41.64" stroke="rgba(55, 140, 231, 1)" stroke-width="1.5"></path><path d="M937.82 -99.78L1111.43 -54.1" stroke="rgba(55, 140, 231, 1)" stroke-width="1.5"></path><path d="M937.82 -99.78L1102.62 44.97" stroke="rgba(55, 140, 231, 1)" stroke-width="1.5"></path><path d="M937.82 -99.78L1257.77 -79.76" stroke="rgba(55, 140, 231, 1)" stroke-width="1.5"></path><path d="M937.82 -99.78L960.45 226.88" stroke="rgba(55, 140, 231, 1)" stroke-width="1.5"></path><path d="M937.82 -99.78L845.91 259.41" stroke="rgba(55, 140, 231, 1)" stroke-width="1.5"></path><path d="M994.04 41.64L994.04 41.64" stroke="rgba(55, 140, 231, 1)" stroke-width="1.5"></path><path d="M994.04 41.64L1102.62 44.97" stroke="rgba(55, 140, 231, 1)" stroke-width="1.5"></path><path d="M994.04 41.64L1111.43 -54.1" stroke="rgba(55, 140, 231, 1)" stroke-width="1.5"></path><path d="M960.45 226.88L960.45 226.88" stroke="rgba(55, 140, 231, 1)" stroke-width="1.5"></path><path d="M960.45 226.88L960.31 383.93" stroke="rgba(55, 140, 231, 1)" stroke-width="1.5"></path><path d="M960.45 226.88L1136.5 259.02" stroke="rgba(55, 140, 231, 1)" stroke-width="1.5"></path><path d="M960.31 383.93L960.31 383.93" stroke="rgba(55, 140, 231, 1)" stroke-width="1.5"></path><path d="M960.31 383.93L960.42 521.99" stroke="rgba(55, 140, 231, 1)" stroke-width="1.5"></path><path d="M960.42 521.99L960.42 521.99" stroke="rgba(55, 140, 231, 1)" stroke-width="1.5"></path><path d="M960.42 521.99L1136.91 542.39" stroke="rgba(55, 140, 231, 1)" stroke-width="1.5"></path><path d="M960.42 521.99L1011.8 709.19" stroke="rgba(55, 140, 231, 1)" stroke-width="1.5"></path><path d="M960.42 521.99L825.23 683.82" stroke="rgba(55, 140, 231, 1)" stroke-width="1.5"></path><path d="M1011.8 709.19L1011.8 709.19" stroke="rgba(55, 140, 231, 1)" stroke-width="1.5"></path><path d="M1011.8 709.19L1130.54 687.13" stroke="rgba(55, 140, 231, 1)" stroke-width="1.5"></path><path d="M1011.8 709.19L1136.91 542.39" stroke="rgba(55, 140, 231, 1)" stroke-width="1.5"></path><path d="M1011.8 709.19L1272.65 644.76" stroke="rgba(55, 140, 231, 1)" stroke-width="1.5"></path><path d="M1011.8 709.19L795.74 549.29" stroke="rgba(55, 140, 231, 1)" stroke-width="1.5"></path><path d="M1111.43 -54.1L1111.43 -54.1" stroke="rgba(55, 140, 231, 1)" stroke-width="1.5"></path><path d="M1111.43 -54.1L1102.62 44.97" stroke="rgba(55, 140, 231, 1)" stroke-width="1.5"></path><path d="M1111.43 -54.1L1257.77 -79.76" stroke="rgba(55, 140, 231, 1)" stroke-width="1.5"></path><path d="M1102.62 44.97L1102.62 44.97" stroke="rgba(55, 140, 231, 1)" stroke-width="1.5"></path><path d="M1102.62 44.97L1263.14 97.63" stroke="rgba(55, 140, 231, 1)" stroke-width="1.5"></path><path d="M1102.62 44.97L1257.77 -79.76" stroke="rgba(55, 140, 231, 1)" stroke-width="1.5"></path><path d="M1102.62 44.97L1136.5 259.02" stroke="rgba(55, 140, 231, 1)" stroke-width="1.5"></path><path d="M1136.5 259.02L1136.5 259.02" stroke="rgba(55, 140, 231, 1)" stroke-width="1.5"></path><path d="M1136.5 259.02L1148.68 405.25" stroke="rgba(55, 140, 231, 1)" stroke-width="1.5"></path><path d="M1136.5 259.02L1282.47 197.42" stroke="rgba(55, 140, 231, 1)" stroke-width="1.5"></path><path d="M1136.5 259.02L1263.14 97.63" stroke="rgba(55, 140, 231, 1)" stroke-width="1.5"></path><path d="M1136.5 259.02L960.31 383.93" stroke="rgba(55, 140, 231, 1)" stroke-width="1.5"></path><path d="M1148.68 405.25L1148.68 405.25" stroke="rgba(55, 140, 231, 1)" stroke-width="1.5"></path><path d="M1148.68 405.25L1136.91 542.39" stroke="rgba(55, 140, 231, 1)" stroke-width="1.5"></path><path d="M1136.91 542.39L1136.91 542.39" stroke="rgba(55, 140, 231, 1)" stroke-width="1.5"></path><path d="M1136.91 542.39L1130.54 687.13" stroke="rgba(55, 140, 231, 1)" stroke-width="1.5"></path><path d="M1130.54 687.13L1130.54 687.13" stroke="rgba(55, 140, 231, 1)" stroke-width="1.5"></path><path d="M1257.77 -79.76L1257.77 -79.76" stroke="rgba(55, 140, 231, 1)" stroke-width="1.5"></path><path d="M1257.77 -79.76L1405.53 -80.8" stroke="rgba(55, 140, 231, 1)" stroke-width="1.5"></path><path d="M1257.77 -79.76L1263.14 97.63" stroke="rgba(55, 140, 231, 1)" stroke-width="1.5"></path><path d="M1263.14 97.63L1263.14 97.63" stroke="rgba(55, 140, 231, 1)" stroke-width="1.5"></path><path d="M1263.14 97.63L1282.47 197.42" stroke="rgba(55, 140, 231, 1)" stroke-width="1.5"></path><path d="M1263.14 97.63L1406.2 41.5" stroke="rgba(55, 140, 231, 1)" stroke-width="1.5"></path><path d="M1282.47 197.42L1282.47 197.42" stroke="rgba(55, 140, 231, 1)" stroke-width="1.5"></path><path d="M1282.47 197.42L1447.77 200.68" stroke="rgba(55, 140, 231, 1)" stroke-width="1.5"></path><path d="M1282.47 197.42L1406.2 41.5" stroke="rgba(55, 140, 231, 1)" stroke-width="1.5"></path><path d="M1282.47 197.42L1450.08 359.21" stroke="rgba(55, 140, 231, 1)" stroke-width="1.5"></path><path d="M1304.5 518.25L1304.5 518.25" stroke="rgba(55, 140, 231, 1)" stroke-width="1.5"></path><path d="M1304.5 518.25L1424.82 492.51" stroke="rgba(55, 140, 231, 1)" stroke-width="1.5"></path><path d="M1304.5 518.25L1272.65 644.76" stroke="rgba(55, 140, 231, 1)" stroke-width="1.5"></path><path d="M1304.5 518.25L1136.91 542.39" stroke="rgba(55, 140, 231, 1)" stroke-width="1.5"></path><path d="M1304.5 518.25L1148.68 405.25" stroke="rgba(55, 140, 231, 1)" stroke-width="1.5"></path><path d="M1272.65 644.76L1272.65 644.76" stroke="rgba(55, 140, 231, 1)" stroke-width="1.5"></path><path d="M1272.65 644.76L1130.54 687.13" stroke="rgba(55, 140, 231, 1)" stroke-width="1.5"></path><path d="M1272.65 644.76L1136.91 542.39" stroke="rgba(55, 140, 231, 1)" stroke-width="1.5"></path><path d="M1272.65 644.76L1445.71 687.92" stroke="rgba(55, 140, 231, 1)" stroke-width="1.5"></path><path d="M1272.65 644.76L1424.82 492.51" stroke="rgba(55, 140, 231, 1)" stroke-width="1.5"></path><path d="M1405.53 -80.8L1405.53 -80.8" stroke="rgba(55, 140, 231, 1)" stroke-width="1.5"></path><path d="M1405.53 -80.8L1406.2 41.5" stroke="rgba(55, 140, 231, 1)" stroke-width="1.5"></path><path d="M1405.53 -80.8L1559.71 -68.49" stroke="rgba(55, 140, 231, 1)" stroke-width="1.5"></path><path d="M1405.53 -80.8L1263.14 97.63" stroke="rgba(55, 140, 231, 1)" stroke-width="1.5"></path><path d="M1406.2 41.5L1406.2 41.5" stroke="rgba(55, 140, 231, 1)" stroke-width="1.5"></path><path d="M1406.2 41.5L1447.77 200.68" stroke="rgba(55, 140, 231, 1)" stroke-width="1.5"></path><path d="M1406.2 41.5L1565.04 98.94" stroke="rgba(55, 140, 231, 1)" stroke-width="1.5"></path><path d="M1447.77 200.68L1447.77 200.68" stroke="rgba(55, 140, 231, 1)" stroke-width="1.5"></path><path d="M1447.77 200.68L1592.34 201.39" stroke="rgba(55, 140, 231, 1)" stroke-width="1.5"></path><path d="M1447.77 200.68L1565.04 98.94" stroke="rgba(55, 140, 231, 1)" stroke-width="1.5"></path><path d="M1447.77 200.68L1450.08 359.21" stroke="rgba(55, 140, 231, 1)" stroke-width="1.5"></path><path d="M1450.08 359.21L1450.08 359.21" stroke="rgba(55, 140, 231, 1)" stroke-width="1.5"></path><path d="M1450.08 359.21L1547.07 383.92" stroke="rgba(55, 140, 231, 1)" stroke-width="1.5"></path><path d="M1450.08 359.21L1424.82 492.51" stroke="rgba(55, 140, 231, 1)" stroke-width="1.5"></path><path d="M1450.08 359.21L1599.19 491.28" stroke="rgba(55, 140, 231, 1)" stroke-width="1.5"></path><path d="M1424.82 492.51L1424.82 492.51" stroke="rgba(55, 140, 231, 1)" stroke-width="1.5"></path><path d="M1424.82 492.51L1547.07 383.92" stroke="rgba(55, 140, 231, 1)" stroke-width="1.5"></path><path d="M1424.82 492.51L1599.19 491.28" stroke="rgba(55, 140, 231, 1)" stroke-width="1.5"></path><path d="M1424.82 492.51L1445.71 687.92" stroke="rgba(55, 140, 231, 1)" stroke-width="1.5"></path><path d="M1445.71 687.92L1445.71 687.92" stroke="rgba(55, 140, 231, 1)" stroke-width="1.5"></path><path d="M1445.71 687.92L1563.84 643.14" stroke="rgba(55, 140, 231, 1)" stroke-width="1.5"></path><path d="M1559.71 -68.49L1559.71 -68.49" stroke="rgba(55, 140, 231, 1)" stroke-width="1.5"></path><path d="M1559.71 -68.49L1565.04 98.94" stroke="rgba(55, 140, 231, 1)" stroke-width="1.5"></path><path d="M1559.71 -68.49L1406.2 41.5" stroke="rgba(55, 140, 231, 1)" stroke-width="1.5"></path><path d="M1565.04 98.94L1565.04 98.94" stroke="rgba(55, 140, 231, 1)" stroke-width="1.5"></path><path d="M1565.04 98.94L1592.34 201.39" stroke="rgba(55, 140, 231, 1)" stroke-width="1.5"></path><path d="M1565.04 98.94L1405.53 -80.8" stroke="rgba(55, 140, 231, 1)" stroke-width="1.5"></path><path d="M1565.04 98.94L1450.08 359.21" stroke="rgba(55, 140, 231, 1)" stroke-width="1.5"></path><path d="M1592.34 201.39L1592.34 201.39" stroke="rgba(55, 140, 231, 1)" stroke-width="1.5"></path><path d="M1592.34 201.39L1547.07 383.92" stroke="rgba(55, 140, 231, 1)" stroke-width="1.5"></path><path d="M1592.34 201.39L1450.08 359.21" stroke="rgba(55, 140, 231, 1)" stroke-width="1.5"></path><path d="M1592.34 201.39L1406.2 41.5" stroke="rgba(55, 140, 231, 1)" stroke-width="1.5"></path><path d="M1547.07 383.92L1547.07 383.92" stroke="rgba(55, 140, 231, 1)" stroke-width="1.5"></path><path d="M1547.07 383.92L1599.19 491.28" stroke="rgba(55, 140, 231, 1)" stroke-width="1.5"></path><path d="M1599.19 491.28L1599.19 491.28" stroke="rgba(55, 140, 231, 1)" stroke-width="1.5"></path><path d="M1599.19 491.28L1563.84 643.14" stroke="rgba(55, 140, 231, 1)" stroke-width="1.5"></path><path d="M1599.19 491.28L1445.71 687.92" stroke="rgba(55, 140, 231, 1)" stroke-width="1.5"></path><path d="M1599.19 491.28L1592.34 201.39" stroke="rgba(55, 140, 231, 1)" stroke-width="1.5"></path><path d="M1563.84 643.14L1563.84 643.14" stroke="rgba(55, 140, 231, 1)" stroke-width="1.5"></path><path d="M1563.84 643.14L1424.82 492.51" stroke="rgba(55, 140, 231, 1)" stroke-width="1.5"></path><path d="M1563.84 643.14L1547.07 383.92" stroke="rgba(55, 140, 231, 1)" stroke-width="1.5"></path><path d="M1563.84 643.14L1304.5 518.25" stroke="rgba(55, 140, 231, 1)" stroke-width="1.5"></path><path d="M1563.84 643.14L1272.65 644.76" stroke="rgba(55, 140, 231, 1)" stroke-width="1.5"></path><circle r="5" cx="-87.38" cy="407" fill="rgba(55, 140, 231, 1)"></circle><circle r="5" cx="-64.99" cy="525.87" fill="rgba(55, 140, 231, 1)"></circle><circle r="5" cx="-50.65" cy="705.56" fill="rgba(55, 140, 231, 1)"></circle><circle r="5" cx="73.79" cy="398.13" fill="rgba(55, 140, 231, 1)"></circle><circle r="5" cx="50.99" cy="529.49" fill="rgba(55, 140, 231, 1)"></circle><circle r="5" cx="53.94" cy="668.85" fill="rgba(55, 140, 231, 1)"></circle><circle r="5" cx="199.24" cy="406.48" fill="rgba(55, 140, 231, 1)"></circle><circle r="5" cx="188.44" cy="529.09" fill="rgba(55, 140, 231, 1)"></circle><circle r="5" cx="211.96" cy="700.25" fill="rgba(55, 140, 231, 1)"></circle><circle r="5" cx="404.5" cy="544.7" fill="rgba(55, 140, 231, 1)"></circle><circle r="5" cx="390.85" cy="646.56" fill="rgba(55, 140, 231, 1)"></circle><circle r="5" cx="506.27" cy="409.88" fill="rgba(55, 140, 231, 1)"></circle><circle r="5" cx="519.9" cy="555.76" fill="rgba(55, 140, 231, 1)"></circle><circle r="5" cx="558.88" cy="669.32" fill="rgba(55, 140, 231, 1)"></circle><circle r="5" cx="712.14" cy="215.07" fill="rgba(55, 140, 231, 1)"></circle><circle r="5" cx="637.64" cy="402.52" fill="rgba(55, 140, 231, 1)"></circle><circle r="5" cx="696.32" cy="556.41" fill="rgba(55, 140, 231, 1)"></circle><circle r="5" cx="676.79" cy="708.82" fill="rgba(55, 140, 231, 1)"></circle><circle r="5" cx="845.91" cy="259.41" fill="rgba(55, 140, 231, 1)"></circle><circle r="5" cx="790.49" cy="343.28" fill="rgba(55, 140, 231, 1)"></circle><circle r="5" cx="795.74" cy="549.29" fill="rgba(55, 140, 231, 1)"></circle><circle r="5" cx="825.23" cy="683.82" fill="rgba(55, 140, 231, 1)"></circle><circle r="5" cx="937.82" cy="-99.78" fill="rgba(55, 140, 231, 1)"></circle><circle r="5" cx="994.04" cy="41.64" fill="rgba(55, 140, 231, 1)"></circle><circle r="5" cx="960.45" cy="226.88" fill="rgba(55, 140, 231, 1)"></circle><circle r="5" cx="960.31" cy="383.93" fill="rgba(55, 140, 231, 1)"></circle><circle r="5" cx="960.42" cy="521.99" fill="rgba(55, 140, 231, 1)"></circle><circle r="5" cx="1011.8" cy="709.19" fill="rgba(55, 140, 231, 1)"></circle><circle r="5" cx="1111.43" cy="-54.1" fill="rgba(55, 140, 231, 1)"></circle><circle r="5" cx="1102.62" cy="44.97" fill="rgba(55, 140, 231, 1)"></circle><circle r="5" cx="1136.5" cy="259.02" fill="rgba(55, 140, 231, 1)"></circle><circle r="5" cx="1148.68" cy="405.25" fill="rgba(55, 140, 231, 1)"></circle><circle r="5" cx="1136.91" cy="542.39" fill="rgba(55, 140, 231, 1)"></circle><circle r="5" cx="1130.54" cy="687.13" fill="rgba(55, 140, 231, 1)"></circle><circle r="5" cx="1257.77" cy="-79.76" fill="rgba(55, 140, 231, 1)"></circle><circle r="5" cx="1263.14" cy="97.63" fill="rgba(55, 140, 231, 1)"></circle><circle r="5" cx="1282.47" cy="197.42" fill="rgba(55, 140, 231, 1)"></circle><circle r="5" cx="1304.5" cy="518.25" fill="rgba(55, 140, 231, 1)"></circle><circle r="5" cx="1272.65" cy="644.76" fill="rgba(55, 140, 231, 1)"></circle><circle r="5" cx="1405.53" cy="-80.8" fill="rgba(55, 140, 231, 1)"></circle><circle r="5" cx="1406.2" cy="41.5" fill="rgba(55, 140, 231, 1)"></circle><circle r="5" cx="1447.77" cy="200.68" fill="rgba(55, 140, 231, 1)"></circle><circle r="5" cx="1450.08" cy="359.21" fill="rgba(55, 140, 231, 1)"></circle><circle r="5" cx="1424.82" cy="492.51" fill="rgba(55, 140, 231, 1)"></circle><circle r="5" cx="1445.71" cy="687.92" fill="rgba(55, 140, 231, 1)"></circle><circle r="5" cx="1559.71" cy="-68.49" fill="rgba(55, 140, 231, 1)"></circle><circle r="5" cx="1565.04" cy="98.94" fill="rgba(55, 140, 231, 1)"></circle><circle r="5" cx="1592.34" cy="201.39" fill="rgba(55, 140, 231, 1)"></circle><circle r="5" cx="1547.07" cy="383.92" fill="rgba(55, 140, 231, 1)"></circle><circle r="5" cx="1599.19" cy="491.28" fill="rgba(55, 140, 231, 1)"></circle><circle r="5" cx="1563.84" cy="643.14" fill="rgba(55, 140, 231, 1)"></circle><path d="M536.97 518.96L536.97 518.96" stroke="hsl(239, 100%, 86.2%)" stroke-width="1.5"></path><path d="M536.97 518.96L657.13 551.51" stroke="hsl(239, 100%, 86.2%)" stroke-width="1.5"></path><path d="M536.97 518.96L559.76 666.24" stroke="hsl(239, 100%, 86.2%)" stroke-width="1.5"></path><path d="M536.97 518.96L371.01 549.73" stroke="hsl(239, 100%, 86.2%)" stroke-width="1.5"></path><path d="M536.97 518.96L638.53 376.08" stroke="hsl(239, 100%, 86.2%)" stroke-width="1.5"></path><path d="M536.97 518.96L638.74 674.14" stroke="hsl(239, 100%, 86.2%)" stroke-width="1.5"></path><path d="M536.97 518.96L812.23 553.82" stroke="hsl(239, 100%, 86.2%)" stroke-width="1.5"></path><path d="M847.84 342.2L847.84 342.2" stroke="hsl(239, 100%, 86.2%)" stroke-width="1.5"></path><path d="M847.84 342.2L962.19 375.3" stroke="hsl(239, 100%, 86.2%)" stroke-width="1.5"></path><path d="M847.84 342.2L981.76 256.02" stroke="hsl(239, 100%, 86.2%)" stroke-width="1.5"></path><path d="M847.84 342.2L638.53 376.08" stroke="hsl(239, 100%, 86.2%)" stroke-width="1.5"></path><path d="M847.84 342.2L812.23 553.82" stroke="hsl(239, 100%, 86.2%)" stroke-width="1.5"></path><path d="M847.84 342.2L1012.31 559.35" stroke="hsl(239, 100%, 86.2%)" stroke-width="1.5"></path><path d="M847.84 342.2L1107.84 239.92" stroke="hsl(239, 100%, 86.2%)" stroke-width="1.5"></path><path d="M981.76 256.02L981.76 256.02" stroke="hsl(239, 100%, 86.2%)" stroke-width="1.5"></path><path d="M981.76 256.02L962.19 375.3" stroke="hsl(239, 100%, 86.2%)" stroke-width="1.5"></path><path d="M981.76 256.02L1107.84 239.92" stroke="hsl(239, 100%, 86.2%)" stroke-width="1.5"></path><path d="M981.76 256.02L1127.4 355.23" stroke="hsl(239, 100%, 86.2%)" stroke-width="1.5"></path><path d="M981.76 256.02L1252.46 352.19" stroke="hsl(239, 100%, 86.2%)" stroke-width="1.5"></path><path d="M1112.5 512.7L1112.5 512.7" stroke="hsl(239, 100%, 86.2%)" stroke-width="1.5"></path><path d="M1112.5 512.7L1012.31 559.35" stroke="hsl(239, 100%, 86.2%)" stroke-width="1.5"></path><path d="M1112.5 512.7L1262.28 505.72" stroke="hsl(239, 100%, 86.2%)" stroke-width="1.5"></path><path d="M1112.5 512.7L1127.4 355.23" stroke="hsl(239, 100%, 86.2%)" stroke-width="1.5"></path><path d="M1112.5 512.7L1087.76 704.58" stroke="hsl(239, 100%, 86.2%)" stroke-width="1.5"></path><path d="M1112.5 512.7L962.19 375.3" stroke="hsl(239, 100%, 86.2%)" stroke-width="1.5"></path><path d="M1577.03 534.46L1577.03 534.46" stroke="hsl(239, 100%, 86.2%)" stroke-width="1.5"></path><path d="M1577.03 534.46L1554.29 660.41" stroke="hsl(239, 100%, 86.2%)" stroke-width="1.5"></path><path d="M1577.03 534.46L1597.41 390.36" stroke="hsl(239, 100%, 86.2%)" stroke-width="1.5"></path><path d="M1577.03 534.46L1411.19 515.02" stroke="hsl(239, 100%, 86.2%)" stroke-width="1.5"></path><path d="M1577.03 534.46L1454.43 410.43" stroke="hsl(239, 100%, 86.2%)" stroke-width="1.5"></path><path d="M-93.16 488.09L-93.16 488.09" stroke="hsl(239, 100%, 86.2%)" stroke-width="1.5"></path><path d="M-93.16 488.09L-102.48 689.96" stroke="hsl(239, 100%, 86.2%)" stroke-width="1.5"></path><path d="M-93.16 488.09L111.78 526.18" stroke="hsl(239, 100%, 86.2%)" stroke-width="1.5"></path><path d="M-93.16 488.09L53.49 652.63" stroke="hsl(239, 100%, 86.2%)" stroke-width="1.5"></path><path d="M-93.16 488.09L259.13 531.21" stroke="hsl(239, 100%, 86.2%)" stroke-width="1.5"></path><path d="M-93.16 488.09L234.68 643.21" stroke="hsl(239, 100%, 86.2%)" stroke-width="1.5"></path><path d="M-102.48 689.96L-102.48 689.96" stroke="hsl(239, 100%, 86.2%)" stroke-width="1.5"></path><path d="M-102.48 689.96L53.49 652.63" stroke="hsl(239, 100%, 86.2%)" stroke-width="1.5"></path><path d="M-102.48 689.96L111.78 526.18" stroke="hsl(239, 100%, 86.2%)" stroke-width="1.5"></path><path d="M111.78 526.18L111.78 526.18" stroke="hsl(239, 100%, 86.2%)" stroke-width="1.5"></path><path d="M111.78 526.18L53.49 652.63" stroke="hsl(239, 100%, 86.2%)" stroke-width="1.5"></path><path d="M111.78 526.18L259.13 531.21" stroke="hsl(239, 100%, 86.2%)" stroke-width="1.5"></path><path d="M111.78 526.18L234.68 643.21" stroke="hsl(239, 100%, 86.2%)" stroke-width="1.5"></path><path d="M111.78 526.18L371.01 549.73" stroke="hsl(239, 100%, 86.2%)" stroke-width="1.5"></path><path d="M53.49 652.63L53.49 652.63" stroke="hsl(239, 100%, 86.2%)" stroke-width="1.5"></path><path d="M53.49 652.63L234.68 643.21" stroke="hsl(239, 100%, 86.2%)" stroke-width="1.5"></path><path d="M259.13 531.21L259.13 531.21" stroke="hsl(239, 100%, 86.2%)" stroke-width="1.5"></path><path d="M259.13 531.21L371.01 549.73" stroke="hsl(239, 100%, 86.2%)" stroke-width="1.5"></path><path d="M259.13 531.21L234.68 643.21" stroke="hsl(239, 100%, 86.2%)" stroke-width="1.5"></path><path d="M259.13 531.21L53.49 652.63" stroke="hsl(239, 100%, 86.2%)" stroke-width="1.5"></path><path d="M234.68 643.21L234.68 643.21" stroke="hsl(239, 100%, 86.2%)" stroke-width="1.5"></path><path d="M234.68 643.21L371.01 549.73" stroke="hsl(239, 100%, 86.2%)" stroke-width="1.5"></path><path d="M371.01 549.73L371.01 549.73" stroke="hsl(239, 100%, 86.2%)" stroke-width="1.5"></path><path d="M371.01 549.73L559.76 666.24" stroke="hsl(239, 100%, 86.2%)" stroke-width="1.5"></path><path d="M559.76 666.24L559.76 666.24" stroke="hsl(239, 100%, 86.2%)" stroke-width="1.5"></path><path d="M559.76 666.24L638.74 674.14" stroke="hsl(239, 100%, 86.2%)" stroke-width="1.5"></path><path d="M559.76 666.24L657.13 551.51" stroke="hsl(239, 100%, 86.2%)" stroke-width="1.5"></path><path d="M638.53 376.08L638.53 376.08" stroke="hsl(239, 100%, 86.2%)" stroke-width="1.5"></path><path d="M638.53 376.08L657.13 551.51" stroke="hsl(239, 100%, 86.2%)" stroke-width="1.5"></path><path d="M638.53 376.08L812.23 553.82" stroke="hsl(239, 100%, 86.2%)" stroke-width="1.5"></path><path d="M638.53 376.08L638.74 674.14" stroke="hsl(239, 100%, 86.2%)" stroke-width="1.5"></path><path d="M657.13 551.51L657.13 551.51" stroke="hsl(239, 100%, 86.2%)" stroke-width="1.5"></path><path d="M657.13 551.51L638.74 674.14" stroke="hsl(239, 100%, 86.2%)" stroke-width="1.5"></path><path d="M657.13 551.51L812.23 553.82" stroke="hsl(239, 100%, 86.2%)" stroke-width="1.5"></path><path d="M657.13 551.51L858.15 682.07" stroke="hsl(239, 100%, 86.2%)" stroke-width="1.5"></path><path d="M638.74 674.14L638.74 674.14" stroke="hsl(239, 100%, 86.2%)" stroke-width="1.5"></path><path d="M812.23 553.82L812.23 553.82" stroke="hsl(239, 100%, 86.2%)" stroke-width="1.5"></path><path d="M812.23 553.82L858.15 682.07" stroke="hsl(239, 100%, 86.2%)" stroke-width="1.5"></path><path d="M812.23 553.82L1012.31 559.35" stroke="hsl(239, 100%, 86.2%)" stroke-width="1.5"></path><path d="M812.23 553.82L638.74 674.14" stroke="hsl(239, 100%, 86.2%)" stroke-width="1.5"></path><path d="M858.15 682.07L858.15 682.07" stroke="hsl(239, 100%, 86.2%)" stroke-width="1.5"></path><path d="M858.15 682.07L1012.31 559.35" stroke="hsl(239, 100%, 86.2%)" stroke-width="1.5"></path><path d="M858.15 682.07L638.74 674.14" stroke="hsl(239, 100%, 86.2%)" stroke-width="1.5"></path><path d="M858.15 682.07L1087.76 704.58" stroke="hsl(239, 100%, 86.2%)" stroke-width="1.5"></path><path d="M858.15 682.07L559.76 666.24" stroke="hsl(239, 100%, 86.2%)" stroke-width="1.5"></path><path d="M962.19 375.3L962.19 375.3" stroke="hsl(239, 100%, 86.2%)" stroke-width="1.5"></path><path d="M962.19 375.3L1127.4 355.23" stroke="hsl(239, 100%, 86.2%)" stroke-width="1.5"></path><path d="M1012.31 559.35L1012.31 559.35" stroke="hsl(239, 100%, 86.2%)" stroke-width="1.5"></path><path d="M1012.31 559.35L1087.76 704.58" stroke="hsl(239, 100%, 86.2%)" stroke-width="1.5"></path><path d="M1012.31 559.35L962.19 375.3" stroke="hsl(239, 100%, 86.2%)" stroke-width="1.5"></path><path d="M1012.31 559.35L1127.4 355.23" stroke="hsl(239, 100%, 86.2%)" stroke-width="1.5"></path><path d="M1107.84 239.92L1107.84 239.92" stroke="hsl(239, 100%, 86.2%)" stroke-width="1.5"></path><path d="M1107.84 239.92L1127.4 355.23" stroke="hsl(239, 100%, 86.2%)" stroke-width="1.5"></path><path d="M1107.84 239.92L1279.72 209.19" stroke="hsl(239, 100%, 86.2%)" stroke-width="1.5"></path><path d="M1107.84 239.92L1252.46 352.19" stroke="hsl(239, 100%, 86.2%)" stroke-width="1.5"></path><path d="M1107.84 239.92L962.19 375.3" stroke="hsl(239, 100%, 86.2%)" stroke-width="1.5"></path><path d="M1127.4 355.23L1127.4 355.23" stroke="hsl(239, 100%, 86.2%)" stroke-width="1.5"></path><path d="M1127.4 355.23L1252.46 352.19" stroke="hsl(239, 100%, 86.2%)" stroke-width="1.5"></path><path d="M1127.4 355.23L1262.28 505.72" stroke="hsl(239, 100%, 86.2%)" stroke-width="1.5"></path><path d="M1087.76 704.58L1087.76 704.58" stroke="hsl(239, 100%, 86.2%)" stroke-width="1.5"></path><path d="M1087.76 704.58L1264.14 709.82" stroke="hsl(239, 100%, 86.2%)" stroke-width="1.5"></path><path d="M1087.76 704.58L1262.28 505.72" stroke="hsl(239, 100%, 86.2%)" stroke-width="1.5"></path><path d="M1087.76 704.58L812.23 553.82" stroke="hsl(239, 100%, 86.2%)" stroke-width="1.5"></path><path d="M1242.25 -71.63L1242.25 -71.63" stroke="hsl(239, 100%, 86.2%)" stroke-width="1.5"></path><path d="M1242.25 -71.63L1278.31 65.16" stroke="hsl(239, 100%, 86.2%)" stroke-width="1.5"></path><path d="M1242.25 -71.63L1453.8 -80.04" stroke="hsl(239, 100%, 86.2%)" stroke-width="1.5"></path><path d="M1242.25 -71.63L1279.72 209.19" stroke="hsl(239, 100%, 86.2%)" stroke-width="1.5"></path><path d="M1278.31 65.16L1278.31 65.16" stroke="hsl(239, 100%, 86.2%)" stroke-width="1.5"></path><path d="M1278.31 65.16L1279.72 209.19" stroke="hsl(239, 100%, 86.2%)" stroke-width="1.5"></path><path d="M1279.72 209.19L1279.72 209.19" stroke="hsl(239, 100%, 86.2%)" stroke-width="1.5"></path><path d="M1279.72 209.19L1252.46 352.19" stroke="hsl(239, 100%, 86.2%)" stroke-width="1.5"></path><path d="M1252.46 352.19L1252.46 352.19" stroke="hsl(239, 100%, 86.2%)" stroke-width="1.5"></path><path d="M1252.46 352.19L1262.28 505.72" stroke="hsl(239, 100%, 86.2%)" stroke-width="1.5"></path><path d="M1252.46 352.19L1454.43 410.43" stroke="hsl(239, 100%, 86.2%)" stroke-width="1.5"></path><path d="M1252.46 352.19L1436.17 246.19" stroke="hsl(239, 100%, 86.2%)" stroke-width="1.5"></path><path d="M1262.28 505.72L1262.28 505.72" stroke="hsl(239, 100%, 86.2%)" stroke-width="1.5"></path><path d="M1262.28 505.72L1411.19 515.02" stroke="hsl(239, 100%, 86.2%)" stroke-width="1.5"></path><path d="M1262.28 505.72L1264.14 709.82" stroke="hsl(239, 100%, 86.2%)" stroke-width="1.5"></path><path d="M1262.28 505.72L1454.43 410.43" stroke="hsl(239, 100%, 86.2%)" stroke-width="1.5"></path><path d="M1264.14 709.82L1264.14 709.82" stroke="hsl(239, 100%, 86.2%)" stroke-width="1.5"></path><path d="M1264.14 709.82L1428.75 660.62" stroke="hsl(239, 100%, 86.2%)" stroke-width="1.5"></path><path d="M1264.14 709.82L1411.19 515.02" stroke="hsl(239, 100%, 86.2%)" stroke-width="1.5"></path><path d="M1264.14 709.82L1112.5 512.7" stroke="hsl(239, 100%, 86.2%)" stroke-width="1.5"></path><path d="M1453.8 -80.04L1453.8 -80.04" stroke="hsl(239, 100%, 86.2%)" stroke-width="1.5"></path><path d="M1453.8 -80.04L1572.31 45.48" stroke="hsl(239, 100%, 86.2%)" stroke-width="1.5"></path><path d="M1453.8 -80.04L1278.31 65.16" stroke="hsl(239, 100%, 86.2%)" stroke-width="1.5"></path><path d="M1453.8 -80.04L1436.17 246.19" stroke="hsl(239, 100%, 86.2%)" stroke-width="1.5"></path><path d="M1436.17 246.19L1436.17 246.19" stroke="hsl(239, 100%, 86.2%)" stroke-width="1.5"></path><path d="M1436.17 246.19L1550.31 236.65" stroke="hsl(239, 100%, 86.2%)" stroke-width="1.5"></path><path d="M1436.17 246.19L1279.72 209.19" stroke="hsl(239, 100%, 86.2%)" stroke-width="1.5"></path><path d="M1436.17 246.19L1454.43 410.43" stroke="hsl(239, 100%, 86.2%)" stroke-width="1.5"></path><path d="M1454.43 410.43L1454.43 410.43" stroke="hsl(239, 100%, 86.2%)" stroke-width="1.5"></path><path d="M1454.43 410.43L1411.19 515.02" stroke="hsl(239, 100%, 86.2%)" stroke-width="1.5"></path><path d="M1454.43 410.43L1597.41 390.36" stroke="hsl(239, 100%, 86.2%)" stroke-width="1.5"></path><path d="M1411.19 515.02L1411.19 515.02" stroke="hsl(239, 100%, 86.2%)" stroke-width="1.5"></path><path d="M1411.19 515.02L1428.75 660.62" stroke="hsl(239, 100%, 86.2%)" stroke-width="1.5"></path><path d="M1411.19 515.02L1554.29 660.41" stroke="hsl(239, 100%, 86.2%)" stroke-width="1.5"></path><path d="M1411.19 515.02L1597.41 390.36" stroke="hsl(239, 100%, 86.2%)" stroke-width="1.5"></path><path d="M1428.75 660.62L1428.75 660.62" stroke="hsl(239, 100%, 86.2%)" stroke-width="1.5"></path><path d="M1428.75 660.62L1554.29 660.41" stroke="hsl(239, 100%, 86.2%)" stroke-width="1.5"></path><path d="M1428.75 660.62L1577.03 534.46" stroke="hsl(239, 100%, 86.2%)" stroke-width="1.5"></path><path d="M1428.75 660.62L1262.28 505.72" stroke="hsl(239, 100%, 86.2%)" stroke-width="1.5"></path><path d="M1572.31 45.48L1572.31 45.48" stroke="hsl(239, 100%, 86.2%)" stroke-width="1.5"></path><path d="M1572.31 45.48L1550.31 236.65" stroke="hsl(239, 100%, 86.2%)" stroke-width="1.5"></path><path d="M1572.31 45.48L1436.17 246.19" stroke="hsl(239, 100%, 86.2%)" stroke-width="1.5"></path><path d="M1572.31 45.48L1278.31 65.16" stroke="hsl(239, 100%, 86.2%)" stroke-width="1.5"></path><path d="M1550.31 236.65L1550.31 236.65" stroke="hsl(239, 100%, 86.2%)" stroke-width="1.5"></path><path d="M1550.31 236.65L1597.41 390.36" stroke="hsl(239, 100%, 86.2%)" stroke-width="1.5"></path><path d="M1597.41 390.36L1597.41 390.36" stroke="hsl(239, 100%, 86.2%)" stroke-width="1.5"></path><path d="M1597.41 390.36L1436.17 246.19" stroke="hsl(239, 100%, 86.2%)" stroke-width="1.5"></path><path d="M1554.29 660.41L1554.29 660.41" stroke="hsl(239, 100%, 86.2%)" stroke-width="1.5"></path><path d="M1554.29 660.41L1454.43 410.43" stroke="hsl(239, 100%, 86.2%)" stroke-width="1.5"></path><circle r="25" cx="536.97" cy="518.96" fill="url(&quot;#SvgjsRadialGradient2334&quot;)"></circle><circle r="25" cx="847.84" cy="342.2" fill="url(&quot;#SvgjsRadialGradient2334&quot;)"></circle><circle r="25" cx="981.76" cy="256.02" fill="url(&quot;#SvgjsRadialGradient2334&quot;)"></circle><circle r="25" cx="1112.5" cy="512.7" fill="url(&quot;#SvgjsRadialGradient2334&quot;)"></circle><circle r="25" cx="1577.03" cy="534.46" fill="url(&quot;#SvgjsRadialGradient2334&quot;)"></circle><circle r="5" cx="-93.16" cy="488.09" fill="#a9abff"></circle><circle r="5" cx="-102.48" cy="689.96" fill="#a9abff"></circle><circle r="5" cx="111.78" cy="526.18" fill="#a9abff"></circle><circle r="5" cx="53.49" cy="652.63" fill="#a9abff"></circle><circle r="5" cx="259.13" cy="531.21" fill="#a9abff"></circle><circle r="5" cx="234.68" cy="643.21" fill="#a9abff"></circle><circle r="5" cx="371.01" cy="549.73" fill="#a9abff"></circle><circle r="5" cx="559.76" cy="666.24" fill="#a9abff"></circle><circle r="5" cx="638.53" cy="376.08" fill="#a9abff"></circle><circle r="5" cx="657.13" cy="551.51" fill="#a9abff"></circle><circle r="5" cx="638.74" cy="674.14" fill="#a9abff"></circle><circle r="5" cx="812.23" cy="553.82" fill="#a9abff"></circle><circle r="5" cx="858.15" cy="682.07" fill="#a9abff"></circle><circle r="5" cx="962.19" cy="375.3" fill="#a9abff"></circle><circle r="5" cx="1012.31" cy="559.35" fill="#a9abff"></circle><circle r="5" cx="1107.84" cy="239.92" fill="#a9abff"></circle><circle r="5" cx="1127.4" cy="355.23" fill="#a9abff"></circle><circle r="5" cx="1087.76" cy="704.58" fill="#a9abff"></circle><circle r="5" cx="1242.25" cy="-71.63" fill="#a9abff"></circle><circle r="5" cx="1278.31" cy="65.16" fill="#a9abff"></circle><circle r="5" cx="1279.72" cy="209.19" fill="#a9abff"></circle><circle r="5" cx="1252.46" cy="352.19" fill="#a9abff"></circle><circle r="5" cx="1262.28" cy="505.72" fill="#a9abff"></circle><circle r="5" cx="1264.14" cy="709.82" fill="#a9abff"></circle><circle r="5" cx="1453.8" cy="-80.04" fill="#a9abff"></circle><circle r="5" cx="1436.17" cy="246.19" fill="#a9abff"></circle><circle r="5" cx="1454.43" cy="410.43" fill="#a9abff"></circle><circle r="5" cx="1411.19" cy="515.02" fill="#a9abff"></circle><circle r="5" cx="1428.75" cy="660.62" fill="#a9abff"></circle><circle r="5" cx="1572.31" cy="45.48" fill="#a9abff"></circle><circle r="5" cx="1550.31" cy="236.65" fill="#a9abff"></circle><circle r="5" cx="1597.41" cy="390.36" fill="#a9abff"></circle><circle r="5" cx="1554.29" cy="660.41" fill="#a9abff"></circle></g><defs><mask id="SvgjsMask2333"><rect width="1440" height="560" fill="#ffffff"></rect></mask><radialGradient id="SvgjsRadialGradient2334"><stop stop-color="#ffffff" offset="0.1"></stop><stop stop-color="rgba(83, 86, 255, 1)" offset="0.2"></stop><stop stop-color="rgba(83, 86, 255, 0)" offset="1"></stop></radialGradient></defs></svg>