<svg xmlns="http://www.w3.org/2000/svg" width="1440" height="560" preserveAspectRatio="none" xmlns:v="https://vecta.io/nano"><g mask="url(#A)" fill="none"><path fill="rgba(250, 250, 250, 1)" d="M0 0h1440v560H0z"/><g stroke="rgba(55, 140, 231, 1)" stroke-width="1.5"><path d="M-87.38 407h0"/><path d="M-87.38 407l22.39 118.87M-87.38 407l161.17-8.87M-87.38 407L50.99 529.49M-87.38 407l286.62-.52"/><path d="M-64.99 525.87h0"/><path d="M-64.99 525.87l115.98 3.62m-115.98-3.62l14.34 179.69"/><path d="M-50.65 705.56h0"/><path d="M-50.65 705.56l104.59-36.71m-104.59 36.71L50.99 529.49m22.8-131.36h0"/><path d="M73.79 398.13l125.45 8.35m-125.45-8.35l-22.8 131.36"/><path d="M73.79 398.13l114.65 130.96M73.79 398.13L-64.99 525.87m115.98 3.62h0"/><path d="M50.99 529.49l137.45-.4M53.94 668.85h0"/><path d="M53.94 668.85l-2.95-139.36m2.95 139.36l158.02 31.4"/><path d="M53.94 668.85L-64.99 525.87m264.23-119.39h0"/><path d="M199.24 406.48l-10.8 122.61m10.8-122.61L50.99 529.49m148.25-123.01L404.5 544.7"/><path d="M188.44 529.09h0"/><path d="M188.44 529.09l23.52 171.16"/><path d="M211.96 700.25h0"/><path d="M211.96 700.25l178.89-53.69m-178.89 53.69L50.99 529.49"/><path d="M211.96 700.25L404.5 544.7M211.96 700.25l-262.61 5.31"/><path d="M404.5 544.7h0"/><path d="M404.5 544.7l-13.65 101.86M404.5 544.7l115.4 11.06M404.5 544.7l101.77-134.82"/><path d="M404.5 544.7l154.38 124.62m-168.03-22.76h0"/><path d="M390.85 646.56l129.05-90.8m-129.05 90.8l168.03 22.76m-52.61-259.44h0"/><path d="M506.27 409.88l131.37-7.36m-131.37 7.36l13.63 145.88"/><path d="M519.9 555.76h0"/><path d="M519.9 555.76l38.98 113.56"/><path d="M558.88 669.32h0"/><path d="M558.88 669.32l117.91 39.5m35.35-493.75h0"/><path d="M712.14 215.07l133.77 44.34"/><path d="M712.14 215.07l78.35 128.21m-78.35-128.21l-74.5 187.45m74.5-187.45l248.31 11.81m-248.31-11.81L506.27 409.88"/><path d="M637.64 402.52h0"/><path d="M637.64 402.52l152.85-59.24m-94.17 213.13h0"/><path d="M696.32 556.41l99.42-7.12m-99.42 7.12l-19.53 152.41m19.53-152.41l-58.68-153.89"/><path d="M676.79 708.82h0"/><path d="M676.79 708.82l148.44-25m-148.44 25l118.95-159.53m50.17-289.88h0"/><path d="M845.91 259.41l-55.42 83.87m55.42-83.87l114.54-32.53m-114.54 32.53l114.4 124.52m-114.4-124.52L637.64 402.52m208.27-143.11L994.04 41.64"/><path d="M790.49 343.28h0"/><path d="M790.49 343.28l169.82 40.65m-169.82-40.65l169.96-116.4M795.74 549.29h0"/><path d="M795.74 549.29l29.49 134.53m-29.49-134.53l164.68-27.3m-164.68 27.3l-5.25-206.01"/><path d="M825.23 683.82h0"/><path d="M825.23 683.82L696.32 556.41m128.91 127.41l186.57 25.37M937.82-99.78h0"/><path d="M937.82-99.78l56.22 141.42M937.82-99.78l173.61 45.68"/><path d="M937.82-99.78l164.8 144.75"/><path d="M937.82-99.78l319.95 20.02M937.82-99.78l22.63 326.66M937.82-99.78l-91.91 359.19M994.04 41.64h0"/><path d="M994.04 41.64l108.58 3.33m-108.58-3.33l117.39-95.74M960.45 226.88h0"/><path d="M960.45 226.88l-.14 157.05m.14-157.05l176.05 32.14"/><path d="M960.31 383.93h0"/><path d="M960.31 383.93l.11 138.06"/><path d="M960.42 521.99h0"/><path d="M960.42 521.99l176.49 20.4m-176.49-20.4l51.38 187.2m-51.38-187.2L825.23 683.82"/><path d="M1011.8 709.19h0"/><path d="M1011.8 709.19l118.74-22.06m-118.74 22.06l125.11-166.8m-125.11 166.8l260.85-64.43m-260.85 64.43l-216.06-159.9M1111.43-54.1h0"/><path d="M1111.43-54.1l-8.81 99.07m8.81-99.07l146.34-25.66"/><path d="M1102.62 44.97h0"/><path d="M1102.62 44.97l160.52 52.66m-160.52-52.66l155.15-124.73M1102.62 44.97l33.88 214.05"/><path d="M1136.5 259.02h0"/><path d="M1136.5 259.02l12.18 146.23m-12.18-146.23l145.97-61.6m-145.97 61.6l126.64-161.39M1136.5 259.02L960.31 383.93"/><path d="M1148.68 405.25h0"/><path d="M1148.68 405.25l-11.77 137.14"/><path d="M1136.91 542.39h0"/><path d="M1136.91 542.39l-6.37 144.74"/><path d="M1130.54 687.13h0m127.23-766.89h0"/><path d="M1257.77-79.76l147.76-1.04m-147.76 1.04l5.37 177.39"/><path d="M1263.14 97.63h0"/><path d="M1263.14 97.63l19.33 99.79m-19.33-99.79L1406.2 41.5"/><path d="M1282.47 197.42h0"/><path d="M1282.47 197.42l165.3 3.26m-165.3-3.26L1406.2 41.5"/><path d="M1282.47 197.42l167.61 161.79M1304.5 518.25h0"/><path d="M1304.5 518.25l120.32-25.74m-120.32 25.74l-31.85 126.51m31.85-126.51l-167.59 24.14m167.59-24.14l-155.82-113"/><path d="M1272.65 644.76h0"/><path d="M1272.65 644.76l-142.11 42.37m142.11-42.37l-135.74-102.37m135.74 102.37l173.06 43.16"/><path d="M1272.65 644.76l152.17-152.25M1405.53-80.8h0"/><path d="M1405.53-80.8l.67 122.3m-.67-122.3l154.18 12.31M1405.53-80.8L1263.14 97.63"/><path d="M1406.2 41.5h0"/><path d="M1406.2 41.5l41.57 159.18M1406.2 41.5l158.84 57.44"/><path d="M1447.77 200.68h0"/><path d="M1447.77 200.68l144.57.71m-144.57-.71l117.27-101.74m-117.27 101.74l2.31 158.53"/><path d="M1450.08 359.21h0"/><path d="M1450.08 359.21l96.99 24.71m-96.99-24.71l-25.26 133.3"/><path d="M1450.08 359.21l149.11 132.07m-174.37 1.23h0"/><path d="M1424.82 492.51l122.25-108.59m-122.25 108.59l174.37-1.23m-174.37 1.23l20.89 195.41"/><path d="M1445.71 687.92h0"/><path d="M1445.71 687.92l118.13-44.78m-4.13-711.63h0"/><path d="M1559.71-68.49l5.33 167.43m-5.33-167.43L1406.2 41.5"/><path d="M1565.04 98.94h0"/><path d="M1565.04 98.94l27.3 102.45m-27.3-102.45L1405.53-80.8m159.51 179.74l-114.96 260.27"/><path d="M1592.34 201.39h0"/><path d="M1592.34 201.39l-45.27 182.53m45.27-182.53l-142.26 157.82m142.26-157.82L1406.2 41.5"/><path d="M1547.07 383.92h0"/><path d="M1547.07 383.92l52.12 107.36"/><path d="M1599.19 491.28h0"/><path d="M1599.19 491.28l-35.35 151.86m35.35-151.86l-153.48 196.64m153.48-196.64l-6.85-289.89"/><path d="M1563.84 643.14h0"/><path d="M1563.84 643.14L1424.82 492.51"/><path d="M1563.84 643.14l-16.77-259.22m16.77 259.22L1304.5 518.25m259.34 124.89l-291.19 1.62"/></g><g fill="rgba(55, 140, 231, 1)"><circle r="5" cx="-87.38" cy="407"/><circle r="5" cx="-64.99" cy="525.87"/><circle r="5" cx="-50.65" cy="705.56"/><circle r="5" cx="73.79" cy="398.13"/><circle r="5" cx="50.99" cy="529.49"/><circle r="5" cx="53.94" cy="668.85"/><circle r="5" cx="199.24" cy="406.48"/><circle r="5" cx="188.44" cy="529.09"/><circle r="5" cx="211.96" cy="700.25"/><circle r="5" cx="404.5" cy="544.7"/><circle r="5" cx="390.85" cy="646.56"/><circle r="5" cx="506.27" cy="409.88"/><circle r="5" cx="519.9" cy="555.76"/><circle r="5" cx="558.88" cy="669.32"/><circle r="5" cx="712.14" cy="215.07"/><circle r="5" cx="637.64" cy="402.52"/><circle r="5" cx="696.32" cy="556.41"/><circle r="5" cx="676.79" cy="708.82"/><circle r="5" cx="845.91" cy="259.41"/><circle r="5" cx="790.49" cy="343.28"/><circle r="5" cx="795.74" cy="549.29"/><circle r="5" cx="825.23" cy="683.82"/><circle r="5" cx="937.82" cy="-99.78"/><circle r="5" cx="994.04" cy="41.64"/><circle r="5" cx="960.45" cy="226.88"/><circle r="5" cx="960.31" cy="383.93"/><circle r="5" cx="960.42" cy="521.99"/><circle r="5" cx="1011.8" cy="709.19"/><circle r="5" cx="1111.43" cy="-54.1"/><circle r="5" cx="1102.62" cy="44.97"/><circle r="5" cx="1136.5" cy="259.02"/><circle r="5" cx="1148.68" cy="405.25"/><circle r="5" cx="1136.91" cy="542.39"/><circle r="5" cx="1130.54" cy="687.13"/><circle r="5" cx="1257.77" cy="-79.76"/><circle r="5" cx="1263.14" cy="97.63"/><circle r="5" cx="1282.47" cy="197.42"/><circle r="5" cx="1304.5" cy="518.25"/><circle r="5" cx="1272.65" cy="644.76"/><circle r="5" cx="1405.53" cy="-80.8"/><circle r="5" cx="1406.2" cy="41.5"/><circle r="5" cx="1447.77" cy="200.68"/><circle r="5" cx="1450.08" cy="359.21"/><circle r="5" cx="1424.82" cy="492.51"/><circle r="5" cx="1445.71" cy="687.92"/><circle r="5" cx="1559.71" cy="-68.49"/><circle r="5" cx="1565.04" cy="98.94"/><circle r="5" cx="1592.34" cy="201.39"/><circle r="5" cx="1547.07" cy="383.92"/><circle r="5" cx="1599.19" cy="491.28"/><circle r="5" cx="1563.84" cy="643.14"/></g><g stroke-width="1.5" stroke="#b9baff"><path d="M536.97 518.96h0"/><path d="M536.97 518.96l120.16 32.55m-120.16-32.55l22.79 147.28m-22.79-147.28l-165.96 30.77m165.96-30.77l101.56-142.88"/><path d="M536.97 518.96l101.77 155.18M536.97 518.96l275.26 34.86m35.61-211.62h0"/><path d="M847.84 342.2l114.35 33.1m-114.35-33.1l133.92-86.18M847.84 342.2l-209.31 33.88m209.31-33.88l-35.61 211.62"/><path d="M847.84 342.2l164.47 217.15M847.84 342.2l260-102.28m-126.08 16.1h0"/><path d="M981.76 256.02L962.19 375.3m19.57-119.28l126.08-16.1m-126.08 16.1l145.64 99.21"/><path d="M981.76 256.02l270.7 96.17M1112.5 512.7h0"/><path d="M1112.5 512.7l-100.19 46.65m100.19-46.65l149.78-6.98m-149.78 6.98l14.9-157.47m-14.9 157.47l-24.74 191.88"/><path d="M1112.5 512.7L962.19 375.3m614.84 159.16h0"/><path d="M1577.03 534.46l-22.74 125.95m22.74-125.95l20.38-144.1m-20.38 144.1l-165.84-19.44"/><path d="M1577.03 534.46l-122.6-124.03M-93.16 488.09h0"/><path d="M-93.16 488.09l-9.32 201.87m9.32-201.87l204.94 38.09"/><path d="M-93.16 488.09L53.49 652.63M-93.16 488.09l352.29 43.12"/><path d="M-93.16 488.09l327.84 155.12m-337.16 46.75h0"/><path d="M-102.48 689.96l155.97-37.33m-155.97 37.33l214.26-163.78"/><path d="M111.78 526.18h0"/><path d="M111.78 526.18L53.49 652.63m58.29-126.45l147.35 5.03"/><path d="M111.78 526.18l122.9 117.03m-122.9-117.03l259.23 23.55M53.49 652.63h0"/><path d="M53.49 652.63l181.19-9.42m24.45-112h0"/><path d="M259.13 531.21l111.88 18.52m-111.88-18.52l-24.45 112m24.45-112L53.49 652.63"/><path d="M234.68 643.21h0"/><path d="M234.68 643.21l136.33-93.48"/><path d="M371.01 549.73h0"/><path d="M371.01 549.73L559.76 666.24"/><path d="M559.76 666.24h0"/><path d="M559.76 666.24l78.98 7.9m-78.98-7.9l97.37-114.73m-18.6-175.43h0"/><path d="M638.53 376.08l18.6 175.43m-18.6-175.43l173.7 177.74m-173.7-177.74l.21 298.06"/><path d="M657.13 551.51h0"/><path d="M657.13 551.51l-18.39 122.63m18.39-122.63l155.1 2.31"/><path d="M657.13 551.51l201.02 130.56m-219.41-7.93h0"/><path d="M812.23 553.82h0"/><path d="M812.23 553.82l45.92 128.25m-45.92-128.25l200.08 5.53m-200.08-5.53L638.74 674.14"/><path d="M858.15 682.07h0"/><path d="M858.15 682.07l154.16-122.72M858.15 682.07l-219.41-7.93m219.41 7.93l229.61 22.51"/><path d="M858.15 682.07l-298.39-15.83M962.19 375.3h0"/><path d="M962.19 375.3l165.21-20.07m-115.09 204.12h0"/><path d="M1012.31 559.35l75.45 145.23m-75.45-145.23L962.19 375.3"/><path d="M1012.31 559.35l115.09-204.12m-19.56-115.31h0"/><path d="M1107.84 239.92l19.56 115.31m-19.56-115.31l171.88-30.73m-171.88 30.73l144.62 112.27m-144.62-112.27L962.19 375.3"/><path d="M1127.4 355.23h0"/><path d="M1127.4 355.23l125.06-3.04m-125.06 3.04l134.88 150.49m-174.52 198.86h0"/><path d="M1087.76 704.58l176.38 5.24m-176.38-5.24l174.52-198.86m-174.52 198.86L812.23 553.82m430.02-625.45h0"/><path d="M1242.25-71.63l36.06 136.79m-36.06-136.79l211.55-8.41"/><path d="M1242.25-71.63l37.47 280.82"/><path d="M1278.31 65.16h0"/><path d="M1278.31 65.16l1.41 144.03"/><path d="M1279.72 209.19h0"/><path d="M1279.72 209.19l-27.26 143"/><path d="M1252.46 352.19h0"/><path d="M1252.46 352.19l9.82 153.53m-9.82-153.53l201.97 58.24m-201.97-58.24l183.71-106"/><path d="M1262.28 505.72h0"/><path d="M1262.28 505.72l148.91 9.3m-148.91-9.3l1.86 204.1m-1.86-204.1l192.15-95.29"/><path d="M1264.14 709.82h0"/><path d="M1264.14 709.82l164.61-49.2m-164.61 49.2l147.05-194.8m-147.05 194.8L1112.5 512.7m341.3-592.74h0"/><path d="M1453.8-80.04l118.51 125.52M1453.8-80.04l-175.49 145.2m175.49-145.2l-17.63 326.23"/><path d="M1436.17 246.19h0"/><path d="M1436.17 246.19l114.14-9.54m-114.14 9.54l-156.45-37m156.45 37l18.26 164.24"/><path d="M1454.43 410.43h0"/><path d="M1454.43 410.43l-43.24 104.59m43.24-104.59l142.98-20.07"/><path d="M1411.19 515.02h0"/><path d="M1411.19 515.02l17.56 145.6m-17.56-145.6l143.1 145.39m-143.1-145.39l186.22-124.66"/><path d="M1428.75 660.62h0"/><path d="M1428.75 660.62l125.54-.21m-125.54.21l148.28-126.16m-148.28 126.16l-166.47-154.9m310.03-460.24h0"/><path d="M1572.31 45.48l-22 191.17m22-191.17l-136.14 200.71m136.14-200.71l-294 19.68"/><path d="M1550.31 236.65h0"/><path d="M1550.31 236.65l47.1 153.71"/><path d="M1597.41 390.36h0"/><path d="M1597.41 390.36l-161.24-144.17m118.12 414.22h0"/><path d="M1554.29 660.41l-99.86-249.98"/></g><g fill="url(#B)"><circle r="25" cx="536.97" cy="518.96"/><circle r="25" cx="847.84" cy="342.2"/><circle r="25" cx="981.76" cy="256.02"/><circle r="25" cx="1112.5" cy="512.7"/><circle r="25" cx="1577.03" cy="534.46"/></g><g fill="#a9abff"><circle r="5" cx="-93.16" cy="488.09"/><circle r="5" cx="-102.48" cy="689.96"/><circle r="5" cx="111.78" cy="526.18"/><circle r="5" cx="53.49" cy="652.63"/><circle r="5" cx="259.13" cy="531.21"/><circle r="5" cx="234.68" cy="643.21"/><circle r="5" cx="371.01" cy="549.73"/><circle r="5" cx="559.76" cy="666.24"/><circle r="5" cx="638.53" cy="376.08"/><circle r="5" cx="657.13" cy="551.51"/><circle r="5" cx="638.74" cy="674.14"/><circle r="5" cx="812.23" cy="553.82"/><circle r="5" cx="858.15" cy="682.07"/><circle r="5" cx="962.19" cy="375.3"/><circle r="5" cx="1012.31" cy="559.35"/><circle r="5" cx="1107.84" cy="239.92"/><circle r="5" cx="1127.4" cy="355.23"/><circle r="5" cx="1087.76" cy="704.58"/><circle r="5" cx="1242.25" cy="-71.63"/><circle r="5" cx="1278.31" cy="65.16"/><circle r="5" cx="1279.72" cy="209.19"/><circle r="5" cx="1252.46" cy="352.19"/><circle r="5" cx="1262.28" cy="505.72"/><circle r="5" cx="1264.14" cy="709.82"/><circle r="5" cx="1453.8" cy="-80.04"/><circle r="5" cx="1436.17" cy="246.19"/><circle r="5" cx="1454.43" cy="410.43"/><circle r="5" cx="1411.19" cy="515.02"/><circle r="5" cx="1428.75" cy="660.62"/><circle r="5" cx="1572.31" cy="45.48"/><circle r="5" cx="1550.31" cy="236.65"/><circle r="5" cx="1597.41" cy="390.36"/><circle r="5" cx="1554.29" cy="660.41"/></g></g><defs><mask id="A"><path fill="#fff" d="M0 0h1440v560H0z"/></mask><radialGradient id="B"><stop stop-color="#fff" offset=".1"/><stop stop-color="rgba(83, 86, 255, 1)" offset=".2"/><stop stop-color="rgba(83, 86, 255, 0)" offset="1"/></radialGradient></defs></svg>