<svg xmlns="http://www.w3.org/2000/svg" version="1.1" xmlns:xlink="http://www.w3.org/1999/xlink" xmlns:svgjs="http://svgjs.dev/svgjs" width="1500" height="720" preserveAspectRatio="none" viewBox="0 0 1500 720"><g mask="url(&quot;#SvgjsMask2335&quot;)" fill="none"><rect width="1500" height="720" x="0" y="0" fill="rgba(65, 68, 244, 1)"></rect><path d="M85 720L805 0L1097.5 0L377.5 720z" fill="url(&quot;#SvgjsLinearGradient2336&quot;)"></path><path d="M510 720L1230 0L1608 0L888 720z" fill="url(&quot;#SvgjsLinearGradient2336&quot;)"></path><path d="M1466 720L746 0L600.5 0L1320.5 720z" fill="url(&quot;#SvgjsLinearGradient2337&quot;)"></path><path d="M988 720L268 0L-3.5 0L716.5 720z" fill="url(&quot;#SvgjsLinearGradient2337&quot;)"></path><path d="M949.5240684049674 720L1500 169.52406840496735L1500 720z" fill="url(&quot;#SvgjsLinearGradient2336&quot;)"></path><path d="M0 720L550.4759315950326 720L 0 169.52406840496735z" fill="url(&quot;#SvgjsLinearGradient2337&quot;)"></path></g><defs><mask id="SvgjsMask2335"><rect width="1500" height="720" fill="#ffffff"></rect></mask><linearGradient x1="0%" y1="100%" x2="100%" y2="0%" id="SvgjsLinearGradient2336"><stop stop-color="rgba(55, 140, 231, 1)" offset="0"></stop><stop stop-opacity="0" stop-color="rgba(55, 140, 231, 1)" offset="0.66"></stop></linearGradient><linearGradient x1="100%" y1="100%" x2="0%" y2="0%" id="SvgjsLinearGradient2337"><stop stop-color="rgba(55, 140, 231, 1)" offset="0"></stop><stop stop-opacity="0" stop-color="rgba(55, 140, 231, 1)" offset="0.66"></stop></linearGradient></defs></svg>